<svg width="159" height="61" viewBox="0 0 159 61" version="1.1" xmlns="http://www.w3.org/2000/svg"><title>quote_logo_engad</title><g id="Page-1" stroke="none" stroke-width="1" fill="none" fill-rule="evenodd"><g id="Artboard-1"><g id="quote_logo_engad"><path id="Rectangle-1" fill-opacity="0" fill="#D8D8D8" d="M0 0h159v61H0z"/><path d="M18 35.952c0 1.296 1.05 2.315 2.346 2.315h9.491V35.92h-9.533v-2.347h9.427c1.296 0 2.453-1.067 2.453-2.363v.057-4.692c0-1.296-1.157-2.535-2.453-2.535h-9.385C19.05 24.04 18 25.27 18 26.566v9.386zM61.536 24.04h-9.385c-1.296 0-2.514 1.239-2.514 2.535v9.385-.057c0 1.296 1.219 2.364 2.514 2.364h9.366v2.346h-9.533v2.347h9.552c1.296 0 2.328-1.012 2.328-2.308V26.575c0-1.296-1.032-2.535-2.328-2.535zm-18.248 0h-7.04c-1.295 0-2.45 1.239-2.45 2.535v11.692h2.346v-11.88h7.144c1.295 0 2.39 1.238 2.39 2.534v9.346h2.346V28.92c0-2.592-2.145-4.881-4.736-4.881zm34.07 11.88H67.823v-6.999c0-1.296 1.28-2.534 2.576-2.534h6.957v11.88h2.347V26.575c0-1.296-.97-2.535-2.265-2.535H70.4c-2.592 0-4.923 2.29-4.923 4.881v7.039c0 1.296 1.28 2.307 2.577 2.307h4.14c2.084 0 4.283-.867 5.163-2.307v2.307-2.347zM131.183 17h-2.347v21.267h2.347v-11.88h7.186V24.04h-7.186V17zM93.05 24.04h-9.095c-1.296 0-2.639 1.239-2.639 2.535v9.385-.057c0 1.296 1.343 2.364 2.64 2.364h11.587V17H93.05v7.04zm19.946 11.92c0 1.296 1.354 2.307 2.65 2.307h9.23V35.92h-9.533v-2.347h9.688c1.296 0 2.192-1.067 2.192-2.363v.057-4.692c0-1.296-.896-2.535-2.192-2.535h-9.385c-1.296 0-2.65 1.239-2.65 2.535v9.385zm-3.874-11.92h-9.385c-1.296 0-2.58 1.239-2.58 2.535v9.385-.057c0 1.296 1.284 2.364 2.58 2.364h9.3v2.346H99.65v2.347h9.472c1.296 0 2.26-1.012 2.26-2.308V26.575c0-1.296-.964-2.535-2.26-2.535zM99.65 35.92h9.386v-9.533h-9.386v9.533zm15.693-4.693h9.533v-4.84h-9.533v4.84zm-31.68 4.693h9.387v-9.533h-9.387v9.533zm-31.68 0h9.533v-9.533h-9.533v9.533zm-31.68-4.693h9.533v-4.84h-9.533v4.84z" id="Combined-Shape" fill="#A9A9A9"/></g></g></g></svg>