<svg width="159" height="61" viewBox="0 0 159 61" version="1.1" xmlns="http://www.w3.org/2000/svg"><title>quote_logo_forbes</title><g id="Page-1" stroke="none" stroke-width="1" fill="none" fill-rule="evenodd"><g id="Artboard-1"><g id="quote_logo_forbes"><path id="Rectangle-1" fill-opacity="0" fill="#D8D8D8" d="M0 0h159v61H0z"/><path d="M58.424 40.903c-1.397-.204-2.62-.795-3.553-1.719-.779-.77-1.284-1.618-1.656-2.78-.58-1.813-.58-4.144 0-5.92.562-1.721 1.83-3.22 3.38-3.998 2.148-1.077 5.17-1.01 7.16.16 1.79 1.054 2.874 2.924 3.175 5.48.093.78.033 2.43-.112 3.11-.594 2.785-2.323 4.73-4.857 5.464a8.153 8.153 0 0 1-.94.205c-.518.072-2.096.07-2.597-.002zm24.754-.001a40.103 40.103 0 0 1-2.93-.487l-.422-.096.033-2.254c.08-5.425.09-8.387.038-11.267-.05-2.822-.065-3.12-.174-3.538-.138-.528-.337-.897-.576-1.068-.093-.066-.346-.16-.562-.208-.718-.161-.679-.136-.698-.463-.01-.188.01-.313.058-.35.064-.052 5.95-1.174 6.138-1.171.054 0 .062.753.034 3.342-.02 1.837-.022 3.34-.005 3.34.016 0 .231-.093.478-.206.742-.343 1.427-.492 2.42-.527.663-.023.97-.008 1.309.062 2.22.46 3.863 2.275 4.438 4.905.15.686.205 2.39.106 3.245a10.603 10.603 0 0 1-.579 2.345c-.95 2.401-2.987 3.968-5.69 4.375-.622.094-2.577.106-3.416.02zm16.57-.029c-2.859-.515-4.904-2.541-5.572-5.522-.086-.383-.124-.812-.145-1.642-.035-1.312.072-2.127.411-3.14.651-1.943 1.818-3.321 3.512-4.147 1.789-.871 4.234-.928 5.817-.135 1.783.892 2.831 2.674 3.097 5.263.036.348.057.763.046.921l-.019.288-4.265.015-4.265.015.017.503c.037 1.167.288 2.199.752 3.096.211.407.38.63.787 1.041.922.93 1.84 1.29 3.286 1.29 1.049 0 1.803-.209 2.592-.718.22-.143.444-.26.497-.26.12 0 .398.357.398.512 0 .254-.827 1.072-1.634 1.617-.66.446-1.708.85-2.616 1.008-.637.111-2.066.109-2.695-.005zm11.528.056c-1.027-.11-2.661-.467-3.205-.701l-.266-.114-.036-1.316c-.02-.724-.043-1.691-.051-2.15l-.015-.835.159-.076a1.23 1.23 0 0 1 .393-.087l.233-.011.2.49c.776 1.91 1.687 2.94 2.876 3.253.454.119 1.305.12 1.64.002.942-.332 1.458-1.044 1.462-2.017.006-1.152-.628-1.706-3.022-2.64-1.483-.579-2-.877-2.616-1.507-.664-.68-.983-1.453-1.043-2.53-.073-1.303.335-2.4 1.239-3.336.91-.941 2.09-1.451 3.698-1.598 1.416-.13 3.59.171 4.729.653l.208.088.037 1.173c.02.645.041 1.51.046 1.921l.01.749-.279.103c-.441.164-.47.144-.715-.506-.688-1.822-1.488-2.684-2.733-2.947-.759-.16-1.393.012-1.854.505-.36.384-.5.725-.534 1.297-.036.621.075.956.454 1.371.468.512 1.234.953 2.76 1.59 1.87.781 2.761 1.444 3.246 2.412.315.63.404 1.132.373 2.099-.024.726-.047.875-.213 1.362-.538 1.589-1.754 2.635-3.633 3.125-.636.166-.727.175-1.992.188-.729.008-1.43.004-1.556-.01zm-72.694-.346c-.048-.02-.072-.163-.072-.429 0-.477-.03-.456.893-.627.708-.131.962-.266 1.275-.675.606-.795.738-2.326.739-8.627.001-5.918-.113-7.163-.74-8.078-.279-.405-.748-.626-1.533-.72l-.606-.072-.016-.472-.017-.473.19-.033c.104-.019 3.768-.027 8.141-.018l7.953.017.037.23c.02.127.054 1.426.075 2.888l.037 2.658-.41.125c-.617.187-.613.19-.89-.545-.683-1.803-1.465-2.842-2.535-3.367-.738-.362-1.08-.406-3.163-.406h-1.814l-.031.303c-.059.567-.152 4.215-.15 5.932v1.714l.533-.003c.293-.002.871-.023 1.285-.048.621-.037.806-.07 1.066-.19.639-.296 1.074-.946 1.34-2.006l.137-.547.47-.016.471-.017V34.002l-.47-.017-.471-.016-.134-.548c-.25-1.028-.734-1.764-1.33-2.028-.276-.121-.958-.19-2.278-.23l-.62-.02v1.3c0 1.417.079 3.334.179 4.374.139 1.45.51 2.251 1.176 2.541.127.055.529.145.894.2.364.055.708.123.763.151.14.073.15.824.01.877-.11.042-10.28.039-10.384-.003zm28.412-.01c-.053-.034-.07-.167-.058-.447l.017-.398.202-.043c.11-.023.35-.07.53-.104.558-.104.878-.407 1.059-1 .147-.482.212-2.028.215-5.13.004-3.796-.075-4.692-.459-5.2-.208-.275-.358-.354-.863-.45-.25-.048-.512-.1-.583-.115-.115-.024-.13-.061-.13-.343 0-.275.018-.325.13-.37.173-.072 5.882-1.212 6.065-1.212h.142l-.028.85c-.015.467-.04 1.147-.054 1.511l-.027.663.207-.373c.662-1.193 1.405-1.934 2.392-2.386.542-.249.904-.323 1.574-.323.794 0 1.588.26 1.588.518 0 .175-1.4 3.87-1.477 3.9-.037.014-.31-.09-.607-.233-.618-.296-1.198-.441-1.76-.44-.701.002-1.484.26-1.793.59-.132.143-.133.151-.166 2.267-.032 2.096.038 4.652.155 5.68.1.876.334 1.307.815 1.508.16.067 1.175.206 1.507.207.025 0 .038.2.029.446l-.017.446-4.265.014c-2.346.008-4.3-.008-4.34-.034zm34.564-9.088l1.003-.035-.036-.712c-.127-2.51-.742-3.882-1.739-3.88-1.084 0-1.95 1.393-2.31 3.712-.044.285-.08.624-.08.752l-.002.233 1.08-.018c.595-.01 1.533-.033 2.084-.052zm-16.07 8.271c.419-.079.744-.246 1.093-.56.876-.786 1.534-2.41 1.792-4.421.106-.82.092-2.686-.025-3.37-.316-1.85-.995-3.065-1.986-3.555-.411-.203-.474-.217-.962-.217-.349 0-.648.037-.903.112l-.382.113-.028 2.105c-.036 2.696.051 9.448.125 9.641.047.124.099.15.332.168.55.043.64.042.944-.016zm-24.973.028c.408-.121.912-.593 1.18-1.106.555-1.06.802-2.625.808-5.113.008-3.117-.48-5.1-1.513-6.138-.433-.437-.74-.572-1.295-.571-1.23.002-2.01 1.285-2.319 3.811-.141 1.161-.142 3.928 0 4.943.436 3.142 1.564 4.642 3.139 4.174z" id="path2995" fill="#A9A9A9"/></g></g></g></svg>