<svg width="159" height="61" viewBox="0 0 159 61" version="1.1" xmlns="http://www.w3.org/2000/svg"><title>quote_logo_fortune</title><g id="Page-1" stroke="none" stroke-width="1" fill="none" fill-rule="evenodd"><g id="Artboard-1"><g id="quote_logo_fortune"><path id="Rectangle-1" fill-opacity="0" fill="#D8D8D8" d="M0 0h159v61H0z"/><path d="M43.129 41.936c5.816 0 8.266-4.405 8.266-10.64 0-6.114-2.352-10.296-8.192-10.296-5.94 0-8.29 4.356-8.29 10.567 0 6.113 2.35 10.37 8.216 10.37zm28.78-.123h9.48v-.545l-3.144-.149V21.842h3.415l2.079 6.41h.57l-.199-7.054H69.187l-.222 7.053h.594l2.104-6.41h3.44V41.12l-3.193.149v.545zm46.055.074h.52V22.015l2.896-.273v-.544h-6.657v.544l2.895.273v13.339l-8.637-14.156h-5.494v.544l2.153.273.371.569v18.387l-3.043.297v.545h6.805v-.545l-2.895-.297V23.995l11.086 17.892zM19 41.813h9.478v-.545l-3.266-.123V31.17h3.316l.445 4.281h.57v-8.958h-.57l-.445 4.058h-3.316v-8.686h5.543l2.079 6.385h.569l-.173-7.053H19v.544l3.02.124v19.278l-3.02.124v.545zm102.949 0h14.502l.569-7.697h-.544l-2.5 7.029-5.766.024v-9.998h3.316l.372 4.281h.569v-8.958h-.57l-.37 4.058h-3.317v-8.686h5.766l1.93 6.286h.57l-.149-6.954H121.95v.544l3.044.124v19.278l-3.044.123v.546zm-27.79.123c5.096 0 5.988-2.326 5.988-4.776V22.015l2.672-.273v-.544h-6.063v.544l2.475.273V37.16c0 2.574-1.262 3.613-3.985 3.613-3.835 0-4.553-1.287-4.553-3.786v-15.12l3.143-.124v-.545h-9.107v.545l2.722.123v14.75c0 3.687 2.03 5.32 6.707 5.32zm-42.443-.123h9.057v-.545l-2.92-.123V31.79h1.807c2.301 0 2.994.371 3.415 3.143l1.04 6.88h5.568v-.545l-2.574-.123-1.04-6.533c-.37-2.376-1.732-2.946-4.009-3.168 2.871-.495 4.727-1.93 4.727-5.197 0-3.217-1.089-5.049-6.459-5.049h-8.637v.545l3.02.123v19.279l-2.995.123v.545zm-8.439-.52c-3.737 0-4.9-2.376-4.9-9.9 0-7.423 1.114-9.75 4.752-9.75 3.712 0 4.8 2.376 4.8 9.726 0 7.4-1.088 9.924-4.652 9.924zm14.576-10.122v-9.305h2.252c2.846 0 3.589 1.658 3.589 4.43 0 2.97-.446 4.875-3.589 4.875h-2.252z" id="Shape" fill="#A9A9A9"/></g></g></g></svg>