<svg width="159" height="61" viewBox="0 0 159 61" version="1.1" xmlns="http://www.w3.org/2000/svg"><title>quote_logo_mash</title><g id="Page-1" stroke="none" stroke-width="1" fill="none" fill-rule="evenodd"><g id="Artboard-1"><g id="quote_logo_mash"><path id="Rectangle-1" fill-opacity="0" fill="#D8D8D8" d="M0 0h159v61H0z"/><path d="M112.54 39.19h3.96V22.04h-3.96v17.15zm-56.28-.039v-1.234c-.77.925-2.265 1.543-3.858 1.543-1.903 0-4.27-1.311-4.27-4.09 0-3.006 2.367-4.012 4.27-4.012 1.646 0 3.112.542 3.858 1.466V31.59c0-1.08-.925-1.825-2.522-1.825-1.234 0-2.469.489-3.47 1.336l-1.467-2.75c1.596-1.364 3.73-1.927 5.633-1.927 2.983 0 5.785 1.104 5.785 4.962v7.765h-3.96zm4.24-1.616l1.647-2.827c.924.823 2.904 1.67 4.37 1.67 1.182 0 1.671-.334 1.671-.875 0-1.54-7.223.053-7.223-4.987 0-2.187 1.902-4.09 5.32-4.09 2.11 0 3.859.668 5.195 1.646l-1.516 2.803c-.745-.721-2.16-1.361-3.65-1.361-.929 0-1.544.359-1.544.847 0 1.361 7.199-.052 7.199 5.04 0 2.367-2.082 4.062-5.63 4.062-2.237 0-4.527-.746-5.838-1.928zm20.425 1.655v-7.226c0-1.516-.798-2.005-2.057-2.005-1.157 0-1.927.644-2.392 1.21v8.021h-3.96V22.04h3.96v6.249c.746-.876 2.212-1.826 4.294-1.826 2.828 0 4.115 1.594 4.115 3.883v8.844h-3.96zm12.616-.039v-1.234c-.77.925-2.265 1.543-3.858 1.543-1.902 0-4.269-1.311-4.269-4.09 0-3.006 2.367-4.012 4.27-4.012 1.645 0 3.112.542 3.857 1.466V31.59c0-1.08-.925-1.825-2.521-1.825-1.235 0-2.469.489-3.471 1.336l-1.467-2.75c1.597-1.364 3.732-1.927 5.634-1.927 2.982 0 5.785 1.104 5.785 4.962v7.765h-3.96zm5.321 0V22h3.96v6.196c.977-1.234 2.314-1.772 3.678-1.772 3.113 0 5.476 2.44 5.476 6.506 0 4.216-2.416 6.53-5.476 6.53-1.389 0-2.648-.566-3.678-1.747v1.438h-3.96zm18.204-6.22c0-3.6 2.7-6.505 6.583-6.505 3.678 0 6.351 2.7 6.351 6.917v.9h-8.845c.282 1.105 1.312 2.033 3.11 2.033.875 0 2.317-.387 3.034-1.055l1.723 2.596c-1.234 1.107-3.291 1.645-5.194 1.645-3.83 0-6.762-2.493-6.762-6.53zm-74.022 6.26V27.848L38.726 39.19h-1.955l-4.347-11.34v11.34H28V22.04h6.147l3.601 9.463 3.573-9.464h6.147V39.19h-4.424zm80.605-9.575c-1.723 0-2.392 1.026-2.546 1.927h5.117c-.102-.876-.746-1.927-2.571-1.927zm-18.46 6.345c1.568 0 2.75-1.157 2.75-3.031 0-1.853-1.182-3.01-2.75-3.01-.848 0-1.878.464-2.367 1.132v3.805c.489.668 1.519 1.104 2.367 1.104zm-11.648 0v-1.104c-.411-.59-1.336-.876-2.212-.876-1.027 0-1.98.465-1.98 1.442 0 .978.953 1.439 1.98 1.439.876 0 1.8-.306 2.212-.9zm-37.281 0v-1.104c-.412-.59-1.337-.876-2.212-.876-1.027 0-1.98.465-1.98 1.442 0 .978.953 1.439 1.98 1.439.875 0 1.8-.306 2.212-.9z" id="Combined-Shape" fill="#A9A9A9"/></g></g></g></svg>