<svg width="160" height="61" viewBox="0 0 160 61" version="1.1" xmlns="http://www.w3.org/2000/svg"><title>quote_logo_popsci</title><g id="Page-1" stroke="none" stroke-width="1" fill="none" fill-rule="evenodd"><g id="Artboard-1"><g id="quote_logo_popsci"><path id="Rectangle-1" fill-opacity="0" fill="#D8D8D8" d="M.256 0h159v61h-159z"/><path d="M103.915 15.008c.084-.042.096.085.132.133l3.665 7.78c.932 1.992 1.89 3.978 2.81 5.982-1.047 0-2.094.012-3.141-.006-.259-.614-.53-1.228-.788-1.847-.392-.043-.795-.006-1.192-.018-1.378.012-2.762-.019-4.146.012-.247.613-.506 1.221-.746 1.84-.373.05-.752.007-1.125.019-.662-.012-1.324.024-1.98-.018 2.178-4.622 4.338-9.249 6.51-13.877zm-49.446.283a6.855 6.855 0 0 1 4.266.716 6.924 6.924 0 0 1 3.117 3.43c.716 1.697.722 3.677.048 5.386a6.745 6.745 0 0 1-2.786 3.292c-1.318.8-2.906 1.107-4.435.926a6.722 6.722 0 0 1-3.941-1.865c-1.162-1.125-1.884-2.684-2.028-4.297-.157-1.582.229-3.225 1.101-4.555 1.035-1.607 2.768-2.75 4.658-3.033zm-16.585.115c1.583-.024 3.165 0 4.754-.006a4.845 4.845 0 0 1 1.607.216 4.246 4.246 0 0 1 2.19 1.6c.68.958.933 2.161.849 3.317-.079 1.245-.584 2.479-1.493 3.345a4.217 4.217 0 0 1-2.852 1.18c-.74.006-1.48.006-2.22 0-.019 1.282 0 2.563-.007 3.845-.944.006-1.883 0-2.828 0V15.406zm26.447 1.281c.012-.433-.024-.866.018-1.287 1.65 0 3.298-.006 4.947 0 1.07 0 2.148.373 2.948 1.1.8.71 1.294 1.722 1.445 2.775.174 1.227-.03 2.521-.662 3.598a4.393 4.393 0 0 1-1.974 1.812 4.37 4.37 0 0 1-1.878.379c-.674.006-1.347-.018-2.021.006.006 1.282.012 2.557 0 3.833-.933 0-1.866.006-2.799 0l-.03-.024c.012-4.068 0-8.13.006-12.192zM75.488 15.4c.945-.012 1.895.006 2.846-.006l.036.03v7.762c0 .361-.018.722.054 1.077.115.632.458 1.234.987 1.607.668.488 1.57.584 2.341.325.542-.18 1.011-.56 1.294-1.047.27-.445.385-.969.385-1.48v-8.262c.945-.024 1.895 0 2.84-.012l.042.03v7.582c-.006.541.024 1.095-.072 1.63a5.288 5.288 0 0 1-2.022 3.358c-1.799 1.378-4.459 1.463-6.348.21-1.456-.932-2.377-2.629-2.383-4.356-.006-2.816-.006-5.632 0-8.448zm13.112 0c.933-.006 1.86.006 2.792-.006l.03.042c0 3.628-.006 7.263.006 10.897h4.935c.042.849.012 1.715.018 2.57H88.6c-.007-4.501-.013-9.002 0-13.503zm23.101 0c1.65-.006 3.298 0 4.953 0 1.047 0 2.112.33 2.918 1.017.879.734 1.402 1.84 1.51 2.972.151 1.372-.192 2.828-1.088 3.888-.373.457-.86.812-1.36 1.107.078.21.228.385.33.584.729 1.203 1.457 2.4 2.185 3.604.048.108.162.199.138.331-.98 0-1.967.018-2.948-.012-.722-1.342-1.45-2.678-2.173-4.02-.535-.042-1.089-.018-1.63-.012-.012 1.342-.012 2.69-.006 4.032-.94.03-1.884.006-2.829.012-.006-4.501 0-9.002 0-13.503zM81.463 30.666l.036-.018c2.564 2.317 5.127 4.628 7.69 6.944.308.265.597.566.915.813-.012-2.425 0-4.85-.006-7.276l.024-.048c.933 0 1.872 0 2.805.006-.018 4.646-.042 9.297-.067 13.943h-.018a.6.6 0 0 0-.06-.066l-8.358-7.78c-.066-.061-.126-.145-.217-.175.012 2.527.054 5.054.06 7.582-.932-.006-1.865.006-2.798 0-.012-4.646.006-9.285-.006-13.925zm-38.62.722c.926-.445 1.98-.56 2.99-.457a6.043 6.043 0 0 1 3.593 1.66c0 .019-.006.06-.006.079-.458.65-.927 1.294-1.378 1.944h-.048c-.807-.765-1.89-1.246-3.01-1.24-.474.006-.986.15-1.305.53a1.071 1.071 0 0 0-.186 1.059c.138.373.45.644.77.854.553.367 1.18.602 1.787.867.89.397 1.763.878 2.425 1.606.56.608.897 1.408.927 2.233.06 1.029-.35 2.064-1.053 2.816-.74.806-1.8 1.276-2.883 1.396-1.793.193-3.73-.307-5.036-1.595-.073-.084-.187-.15-.217-.264.433-.686.86-1.378 1.294-2.058.018.006.054.024.078.03.752.638 1.625 1.203 2.624 1.342.571.072 1.215.078 1.709-.271.481-.331.613-1.035.343-1.54-.193-.368-.536-.632-.885-.855-.752-.47-1.619-.71-2.383-1.155-.812-.452-1.57-1.078-1.986-1.926-.5-1.011-.475-2.25.018-3.262a3.863 3.863 0 0 1 1.818-1.793zm12.36-.084c1.306-.47 2.756-.53 4.104-.21 1.04.246 1.98.794 2.786 1.48l.024.048c-.524.716-1.023 1.444-1.547 2.16-.36-.289-.728-.596-1.149-.8-.963-.506-2.142-.548-3.16-.175a3.939 3.939 0 0 0-2.081 1.824c-.512.92-.638 2.015-.482 3.05.127.897.518 1.77 1.192 2.39.818.77 1.986 1.1 3.087 1.022 1.083-.108 2.1-.661 2.834-1.444.475.626.933 1.258 1.396 1.89.042.06.108.114.108.192-.866.867-1.95 1.529-3.14 1.836-2.161.571-4.568-.054-6.223-1.54a6.954 6.954 0 0 1-2.274-4.19 6.894 6.894 0 0 1 .722-4.248 6.97 6.97 0 0 1 3.803-3.285zm45.438-.307c1.468-.24 3.04-.066 4.357.644.493.259.95.578 1.366.945.012.078-.06.132-.096.192-.41.578-.819 1.15-1.228 1.721-.078.09-.12.223-.229.29-.535-.518-1.191-.922-1.913-1.108-1.432-.373-3.07.132-4.008 1.288-.632.758-.963 1.739-.987 2.72-.024.818.12 1.648.494 2.377a3.667 3.667 0 0 0 1.354 1.456c.728.445 1.606.62 2.455.571 1.1-.09 2.13-.661 2.882-1.45.391.554.8 1.09 1.198 1.637.096.15.234.283.3.445-.818.825-1.835 1.462-2.954 1.793-1.553.458-3.268.295-4.73-.39a7.03 7.03 0 0 1-3.49-3.605 6.912 6.912 0 0 1 .18-5.783c.963-1.956 2.895-3.394 5.05-3.743zm-36.382.084c.95 0 1.902-.006 2.852.006-.006 4.501-.006 9.003-.006 13.504h-2.84c-.012-4.501-.006-9.009-.006-13.51zm5.458 0c3.13 0 6.252.006 9.375 0l.018.042c0 .843.006 1.685 0 2.528-2.19.006-4.38 0-6.57.006-.007.927-.007 1.853 0 2.78 1.81.006 3.616 0 5.427 0l.018.048c-.006.843.006 1.691-.006 2.54-1.811.006-3.616 0-5.428 0-.036.992-.012 1.997-.012 2.996 2.19 0 4.381-.006 6.571 0 .006.764 0 1.523 0 2.287-.006.096.018.198-.018.289-3.117-.012-6.24-.006-9.357-.006l-.03-.036c.006-3.43 0-6.866 0-10.296.012-1.06-.012-2.125.012-3.178zm38.952.006c3.135-.012 6.276-.006 9.411 0 0 .849-.006 1.703 0 2.558-2.178.024-4.363 0-6.547.012l-.036.018c.012.909.006 1.817 0 2.732l.036.03c1.8 0 3.604.006 5.41 0 .018.854 0 1.721.006 2.581-1.812.024-3.635-.006-5.446.012-.006.993.006 1.98-.006 2.973.385.042.788.006 1.185.018h5.302c.024 0 .072.006.096.012-.006.849 0 1.703-.006 2.552-3.13.012-6.264.006-9.4.006 0-4.501.007-9.003-.005-13.504zm-41.51-12.992c0 1.487-.005 2.973 0 4.46.632.011 1.264 0 1.902 0 .445 0 .879-.2 1.186-.524.439-.463.655-1.107.686-1.74.03-.565-.12-1.167-.512-1.6-.337-.385-.854-.596-1.366-.596H67.16zm-26.428-.006l-.019.037c-.006 1.384 0 2.768 0 4.158.006.09-.018.192.019.282.65-.018 1.3 0 1.95-.012a1.68 1.68 0 0 0 1.19-.601c.404-.47.596-1.102.62-1.715.019-.56-.144-1.15-.535-1.565a1.82 1.82 0 0 0-1.324-.578c-.632-.006-1.27.006-1.901-.006zm13.978-.036c-1.07.229-2.016.933-2.575 1.872a4.332 4.332 0 0 0-.596 2.78c.12.98.596 1.92 1.33 2.587a3.918 3.918 0 0 0 5.019.253 4.184 4.184 0 0 0 1.582-2.473 4.195 4.195 0 0 0-.343-2.78c-.427-.867-1.155-1.595-2.04-1.986a3.847 3.847 0 0 0-2.377-.253zm49.194 2.732c-.542 1.306-1.114 2.6-1.637 3.912 1.107.012 2.214 0 3.328.006l.03-.024a447.917 447.917 0 0 1-1.68-3.894h-.041zm10.627-2.66c.006 1.409-.012 2.817.006 4.219.625.006 1.251.006 1.877 0 .488.006.969-.21 1.288-.572.457-.511.638-1.221.602-1.895-.03-.542-.271-1.096-.716-1.42-.355-.26-.8-.368-1.234-.362h-1.793l-.03.03z" id="Combined-Shape" fill="#A9A9A9"/></g></g></g></svg>