<svg width="160" height="61" viewBox="0 0 160 61" version="1.1" xmlns="http://www.w3.org/2000/svg"><title>quote_logo_time</title><g id="Page-1" stroke="none" stroke-width="1" fill="none" fill-rule="evenodd"><g id="Artboard-1"><g id="quote_logo_time"><path id="Rectangle-1" fill-opacity="0" fill="#D8D8D8" d="M.768 0h159v61h-159z"/><path d="M52.915 20.5l-1.892-.01H48.09c-.203 0-1.776.016-1.776.016l-.028 2.543-.287.008.017-2.858-.01-1.174c1 .049 4.61.08 8.356.08 4.369 0 7.183-.044 8.287-.077l-.013 1.301.024 2.89-.298-.002c.002-.236-.049-1.196-.046-1.29a92.064 92.064 0 0 0-.072-1.42l-1.254-.017h-3.758l-1.44.005.002 17.832.032 1.407c.145.02 1.538.117 1.79.117l.098-.001v.486c-.075 0-.168.008-.246.007-.791-.009-2.068-.104-2.976-.104-.893 0-2.153.088-3.085.102a8.19 8.19 0 0 1-.288-.007l-.002-.517.154-.004a63.335 63.335 0 0 0 1.616-.103l.039-.006-.012-19.205zm16.877 19.856c-.733 0-1.98-.122-2.913-.122-.924 0-2.177.122-3.08.122-.076 0-.211-.017-.285-.017v-.506c.178-.004.975-.077 1.197-.093.26-.02.5-.032.607-.067l.005-1.556c.01-3.272.03-12.52-.001-16.704-.004-.442-.006-1.561-.006-1.723-.17-.017-.405-.04-.575-.062-.211-.011-1.083-.094-1.231-.103l-.006-.507c.865 0 2.148.089 3.19.089.994 0 2.344-.089 3.367-.089l-.003.528c-.162.012-.556.036-.57.038-.297.028-1.13.122-1.336.137v1.628c0 3.747-.004 13.55-.006 16.85v1.07c0 .253.002.404.004.414.005.019.528.067.648.075.23.027 1.18.068 1.208.075h.064v.507c-.063 0-.214.016-.278.016zm6.582-14.231s-.472 2.61-1.153 6.29c-.361 1.99-1.108 6.963-1.159 7.291.431.065 1.28.134 1.51.126l.211.002v.504a4.097 4.097 0 0 1-.332.014c-.817-.017-1.406-.08-2.288-.08-.232 0-1.458.064-1.89.079-.18.008-.435-.012-.484-.01v-.499c.043 0 .128-.017.183-.019.39-.018.992-.078 1.502-.144.041-.245.482-2.697.622-3.566.541-2.874 2.137-12.478 2.336-13.773.175-1.399.379-3.139.398-3.33.422.007 1.152-.01 1.152-.01s1.412 4.388 1.642 5.03c.229.643 4.544 11.744 4.544 11.744s2.025-4.783 3.83-9.916c.366-1.039.845-2.394 1.199-3.491L89.28 19h1.111s.275 1.96.373 2.834c.283 2.54 2.14 12.866 2.79 16.262.163.85.286 1.585.286 1.585.192.014.942.088 1.387.125.093.008.342.021.4.021l.002.512s-.203.01-.313.01c-.996-.006-2.546-.095-3.503-.095-.85 0-1.67.073-2.52.092-.145.002-.291-.005-.439-.005v-.505c.005-.001.118-.008.178-.005.415-.02 1.517-.128 1.627-.133 0-.186-.06-.83-.15-1.486-.061-.464-.166-1.257-.279-2.038-.242-1.519-1.364-7.811-1.697-9.558a26.217 26.217 0 0 0-.09-.448s-3.474 8.914-4.175 10.67a186.037 186.037 0 0 0-1.364 3.534l-.989-.006-5.413-13.917-.129-.324zm34.377-2.936l-.287.001-.003-.15c-.03-.371-.092-1.423-.171-2.307-.008-.079-.02-.14-.02-.14-.172-.006-.872-.029-.883-.04-.01-.01-.568-.018-.58-.024-.006-.003-1.834-.014-3.72-.015-1.285-.002-2.551.007-3.328.007-.19-.001-.875.026-.875.026l-.004 8.39 5.388.019c.025 0 1.427-.044 1.46-.043.086 0 1.048-.055 1.084-.068 0 0 .015-.088.038-.152.078-.508.177-.99.2-1.367 0 0 .026-.161.027-.27l.307-.007c0 .04.015.136.014.273-.003.506-.04 1.556-.038 2.245.002.99.028 1.885.034 2.334.004.128-.004.332-.004.332h-.336l-.019-.148c-.06-.571-.108-.975-.197-1.557-.003-.03-.02-.135-.027-.202a31.565 31.565 0 0 0-.867-.035c-.105-.004-1.418-.013-2.896-.015-.606 0-1.694.028-2.155.026-.54 0-1.432.035-2.015.056l.006 7.61.023.979 3.271.057 4.659-.004c.02 0 1.066-.042 1.393-.036.069.002.209-.01.209-.01.03-.247.069-.745.107-1.22.003-.056.12-1.318.12-1.658l.286-.003c0 .32-.061 4.307-.061 4.307-.525 0-2.137-.001-4.126-.03-1.208-.019-2.553-.018-3.879-.037-1.076-.016-2.14-.054-3.109-.052-1.38.001-2.731.092-3.256.092-.12 0-.332-.008-.378-.008v-.5h.097c.323-.003 1.274-.059 1.77-.151 0-.101.034-1.342.034-1.368l-.003-16.462c0-.761-.013-2.03-.013-2.143-.281-.033-.38-.05-.44-.063a22.722 22.722 0 0 0-1.2-.115c-.09.002-.187-.01-.235-.018 0 0-.002-.493-.004-.5.07.004.218-.007.482-.005.555.002 1.577.084 2.826.086.785 0 2.05-.038 2.957-.05 1.294 0 2.275-.012 3.528-.02l4.472-.032c.2 0 .31-.002.31-.002l-.002.136c0 .158-.007.436-.004.777.007 1.06.033 2.73.033 3.274z" id="Shape" fill="#A9A9A9"/></g></g></g></svg>