<svg width="160" height="61" viewBox="0 0 160 61" version="1.1" xmlns="http://www.w3.org/2000/svg"><title>quote_logo_verge</title><g id="Page-1" stroke="none" stroke-width="1" fill="none" fill-rule="evenodd"><g id="Artboard-1"><g id="quote_logo_verge"><path id="Rectangle-1" fill-opacity="0" fill="#D8D8D8" d="M.012 0h159v61h-159z"/><path d="M112.709 39.276c-3-.525-5.488-2.52-6.616-5.307-.581-1.435-.778-3.895-.43-5.372.496-2.102 1.83-4.025 3.566-5.139 1.54-.988 2.758-1.267 5.982-1.368l2.886-.09v6.045l-1.11-.452a7.665 7.665 0 0 0-2.443-.527c-1.243-.07-1.388-.038-2.168.464-1.117.72-1.632 1.711-1.643 3.161-.007.94.068 1.204.532 1.864.72 1.024 1.7 1.566 2.835 1.566 1.179 0 1.37-.145 1.3-.99l-.056-.692-1.377.009-1.377.009V28.53l3.73.052 3.732.051v3.608c0 2.194.077 3.831.197 4.177.25.714.016 1.004-1.427 1.772-1.738.927-4.36 1.393-6.113 1.086zm-81.726-.664c.083-.17.175-2.897.206-6.058l.055-5.747-1.613.062-1.613.063.05-2.399.049-2.398 4.13-.048 4.13-.048v16.884h-2.772c-2.58 0-2.762-.022-2.622-.31zm6.46-8.127v-8.439h7.284v4.915l-.977-.081-.977-.081v1.82h3.02v-6.573h5.33V38.923h-5.676l.173-.456c.095-.25.173-1.65.173-3.108v-2.654h-3.037l.054 2.798c.03 1.54.122 2.938.205 3.11.141.289-.046.31-2.71.31h-2.861v-8.438zm14.413 8.145c.37-.447.456-14.8.094-15.85l-.253-.734H61.96v4.923l-.932-.245c-.527-.138-1.552-.223-2.354-.196l-1.421.048-.054 1.045-.054 1.044 1.52-.08 1.519-.08v4.157l-.786-.167c-.432-.093-1.092-.143-1.466-.112l-.68.056-.054.952-.054.952 2.009-.088c1.104-.048 2.188-.146 2.408-.218l.4-.13v5.016h-5.174c-4.791 0-5.156-.022-4.93-.293zm20.17-.284c-2.457-5.882-6.687-15.414-7.01-15.796l-.423-.504h5.967c3.282 0 5.967.06 5.966.133 0 .074-.349 1.053-.774 2.177l-.774 2.043-1.357.052c-.747.028-1.358.082-1.358.118 0 .168 1.664 4.642 1.773 4.765.067.077.907-1.982 1.865-4.574l1.743-4.714H91.45v2.595c0 2.408-.023 2.585-.311 2.452-.171-.079-1.25-.174-2.399-.211l-2.087-.07v1.852l1.51-.08 1.51-.079v4.157l-.786-.167c-.432-.093-1.092-.143-1.466-.112l-.68.056-.052 1.021-.054 1.022h1.586c.955 0 1.885-.106 2.34-.267.416-.146.786-.266.822-.266.037 0 .067 1.119.067 2.487v2.487h-5.174c-4.238 0-5.139-.042-4.98-.232.211-.256.385-12.56.176-12.559-.065 0-1.342 2.878-2.838 6.396l-2.72 6.395h-3.646l-.241-.577zm20.108-16.302l.145.4c.194.534.188 15.77-.006 16.166-.142.29.053.311 2.893.311 2.955 0 3.043-.01 2.864-.344-.1-.19-.183-1.313-.183-2.498 0-2.152 0-2.156.4-2.038.747.22 1.725.972 2.198 1.688.534.807.751 2.22.433 2.814l-.205.378h3.037c1.776 0 2.995-.067 2.936-.161-.055-.089-.244-1.039-.427-2.11-.403-2.359-1.124-3.86-2.27-4.735l-.761-.583.433-.583c1.45-1.964 1.218-5.25-.488-6.956-1.389-1.388-2.97-1.741-7.745-1.743l-3.254-.006zm28.742 16.568c.195-.398.201-15.633.007-16.169l-.146-.402 5.12.047 5.12.047.05 2.456.049 2.456-.405-.13c-.984-.315-1.74-.421-3.025-.425l-1.377-.004v2.176l1.51-.08 1.51-.078v2.119c0 1.945-.025 2.109-.31 1.998-.172-.066-.843-.166-1.492-.221l-1.18-.1-.063.935c-.045.653.006.962.169 1.024.301.116 3.733-.07 4.253-.23l.4-.123V38.923h-5.171c-4.864 0-5.162-.018-5.019-.31zm-22.64-12.121c.17.01.418.108.771.255 1.058.442 1.272 1.598.45 2.421-.349.349-.699.516-1.066.516h-.544v-1.599c0-1.221.012-1.616.389-1.593z" id="Combined-Shape" fill="#A9A9A9"/></g></g></g></svg>