<svg width="159" height="61" viewBox="0 0 159 61" version="1.1" xmlns="http://www.w3.org/2000/svg"><title>quote_logo_wsj</title><g id="Page-1" stroke="none" stroke-width="1" fill="none" fill-rule="evenodd"><g id="Artboard-1"><g id="quote_logo_wsj"><path id="Rectangle-1" fill-opacity="0" fill="#D8D8D8" d="M0 0h159v61H0z"/><path d="M53.441 18.851l-1.335-.21H52v-1.027h7.196v1.028h-.2c-.825-.102-1.235.209-1.235 1.027v.516l3.084 15.838 1.85-10.388-1.026-5.243c-.207-1.337-.718-1.852-1.646-1.75h-.107v-1.028h6.993v1.028h-.099c-1.131-.102-1.646.31-1.646 1.236l3.085 16.04h.204l2.78-15.219v-.616c0-1.13-.517-1.543-1.647-1.44h-.308v-1.03h6.061v1.029h-.305l-1.44.209-.926 2.053-4.832 22.93H66.4l-2.983-15.013-3.088 15.014h-1.54l-4.629-23.443-.718-1.541zm32.594-1.545v9.048h-.924v-.308c0-5.14-1.438-7.711-4.316-7.711-1.955-.103-2.981.925-2.882 3.188 0 1.133.31 2.262 1.03 3.29l3.085 2.778 3.804 3.805c1.028 1.54 1.542 3.493 1.542 5.653 0 4.32-2.055 6.48-6.067 6.48-1.543 0-3.084-.516-4.626-1.647l-.62 1.546h-.72v-9.154h.825v.308c0 2.775.614 4.833 1.747 6.273.928 1.027 1.953 1.542 3.086 1.542 2.367 0 3.6-1.336 3.6-4.115 0-2.568-1.545-5.039-4.628-7.402-3.19-2.366-4.833-4.937-4.833-7.918-.103-1.853.517-3.29 1.643-4.32.926-1.13 2.162-1.642 3.703-1.642 1.543 0 2.881.512 4.216 1.643l.718-1.337h.617zm7.2 20.052c0 1.541-.718 2.364-2.261 2.467l.716 1.954c.514.616 1.235.925 2.06.925l1.848-.823.516-2.877v-18.82c-.104-1.026-.516-1.54-1.438-1.54h-.722v-1.03h7.916v1.03h-.717c-.925 0-1.441.514-1.335 1.541v18.099c-.106 3.703-2.06 5.552-5.863 5.657-1.338-.105-2.472-.513-3.19-1.442-1.13-1.13-1.642-2.469-1.642-4.215l.823-2.056 1.336-.72c1.128 0 1.85.616 1.954 1.85z" id="path4" fill="#A9A9A9"/></g></g></g></svg>